# AST/ASF file generated using VICON BodyLanguage
# -----------------------------------------------
:version 1.10
:name VICON
:units
  mass 1.0
  length 0.45
  angle deg
:documentation
   .ast/.asf automatically generated from VICON data using
   VICON BodyBuilder and BodyLanguage model FoxedUp or BRILLIANT.MOD
:root
   order TX TY TZ RX RY RZ
   axis XYZ
   position 0 0 0  
   orientation 0 0 0 
:bonedata
  begin
     id 1 
     name lhipjoint
     direction 0.606768 -0.715223 0.346827 
     length 2.41543 
     axis 0 0 0  XYZ
  end
  begin
     id 2 
     name lfemur
     direction 0.34202 -0.939693 0  
     length 7.2778  
     axis 0 0 20  XYZ
    dof rx ry rz
    limits (-160.0 20.0)
           (-70.0 70.0)
           (-60.0 70.0)
  end
  begin
     id 3 
     name ltibia
     direction 0.34202 -0.939693 0   
     length 7.61811   
     axis 0 0 20   XYZ
    dof rx
    limits (-10.0 170.0)
  end
  begin
     id 4 
     name lfoot
     direction 0.0823924 -0.226371 0.97055   
     length 2.33618   
     axis -90 7.62852e-016 20   XYZ
    dof rx rz
    limits (-45.0 90.0)
           (-70.0 20.0)
  end
  begin
     id 5 
     name ltoes
     direction 1.53554e-011 -4.21934e-011 1   
     length 1.17015   
     axis -90 7.62852e-016 20   XYZ
    dof rx
    limits (-90.0 20.0)
  end
  begin
     id 6 
     name rhipjoint
     direction -0.6077 -0.714582 0.346516   
     length 2.4176  
     axis 0 0 0  XYZ 
  end
  begin
     id 7 
     name rfemur
     direction -0.34202 -0.939693 0   
     length 7.28127   
     axis 0 0 -20   XYZ
    dof rx ry rz
    limits (-160.0 20.0)
           (-70.0 70.0)
           (-70.0 60.0)
  end
  begin
     id 8 
     name rtibia
     direction -0.34202 -0.939693 0   
     length 7.77648   
     axis 0 0 -20   XYZ
    dof rx
    limits (-10.0 170.0)
 end
 begin
     id 9 
     name rfoot
     direction -0.0809463 -0.222398 0.97159   
     length 2.37533  
     axis -90 -7.62852e-016 -20   XYZ
    dof rx rz
    limits (-45.0 90.0)
           (-20.0 70.0)
  end
  begin
     id 10 
     name rtoes
     direction -1.53568e-011 -4.21714e-011 1   
     length 1.18972   
     axis -90 -7.62852e-016 -20   XYZ
    dof rx
    limits (-90.0 20.0)
  end
  begin
     id 11 
     name lowerback
     direction 0.010968 0.991932 -0.126297   
     length 2.21698   
     axis 0 0 0   XYZ
    dof rx ry rz
    limits (-20.0 45.0)
           (-30.0 30.0)
           (-30.0 30.0)
  end
  begin
     id 12 
     name upperback
     direction 0.0167007 0.997503 -0.0686276   
     length 2.22371   
     axis 0 0 0   XYZ
    dof rx ry rz
    limits (-20.0 45.0)
           (-30.0 30.0)
           (-30.0 30.0)
  end
  begin
     id 13 
     name thorax
     direction 0.0111721 0.999885 -0.0102878   
     length 2.25242   
     axis 0 0 0   XYZ
    dof rx ry rz
    limits (-20.0 45.0)
           (-30.0 30.0)
           (-30.0 30.0)
  end
  begin
     id 14 
     name lowerneck
     direction -0.0120265 0.990428 0.137508   
     length 1.57674   
     axis 0 0 0   XYZ
    dof rx ry rz
    limits (-20.0 45.0)
           (-30.0 30.0)
           (-30.0 30.0)
  end
  begin
     id 15 
     name upperneck
     direction 0.0175669 0.998907 0.0433089   
     length 1.5618   
     axis 0 0 0   XYZ
    dof rx ry rz
    limits (-20.0 45.0)
           (-30.0 30.0)
           (-30.0 30.0)
  end
  begin
     id 16
     name head
     direction 0.00754609 0.99997 0.00185367  
     length 1.60579  
     axis 0 0 0   XYZ
    dof rx ry rz
    limits (-20.0 45.0)
           (-30.0 30.0)
           (-30.0 30.0)
  end
  begin
     id 17 
     name lclavicle
     direction 0.885866 0.429166 -0.176231  
     length 3.44967  
     axis 0 0 0   XYZ
    dof ry rz
    limits (-20.0 10.0)
           (0.0 20.0)
  end
  begin
     id 18 
     name lhumerus
     direction 1 -4.48973e-011 -1.90255e-027   
     length 5.20607   
     axis 180 -30 -90   XYZ
    dof rx ry rz
    limits (-60.0 90.0)
           (-90.0 90.0)
           (-90.0 90.0)
  end
  begin
     id 19
     name lradius
     direction 1 -4.48956e-011 9.87925e-027   
     length 3.39961   
     axis 180 -30 -90   XYZ
    dof rx
    limits (-10.0 170.0)
  end
  begin
     id 20
     name lwrist
     direction 1 -4.48985e-011 1.73247e-026   
     length 1.6998   
     axis -9.60847e-015 90 90   XYZ
    dof ry
    limits (-180.0 0.0)
 end
  begin
     id 21 
     name lhand
     direction 1 -4.48798e-011 3.46119e-026   
     length 0.519693   
     axis -2.21073e-014 90 90   XYZ
    dof rx rz
    limits (-90.0 90.0)
           (-45.0 45.0)
  end
  begin
     id 22 
     name lfingers
     direction 1 -4.48938e-011 6.92797e-026   
     length 0.41899   
     axis -4.42155e-014 90 90   XYZ
    dof rx
    limits (0.0 90.0)
  end
  begin
     id 23
     name lthumb
     direction 0.707107 -6.34952e-011 0.707107   
     length 0.601588   
     axis -90 45 6.0103e-014   XYZ
    dof rx rz
    limits (-45.0 45.0)
           (-45.0 45.0)
  end
  begin
     id 24 
     name rclavicle
     direction -0.866736 0.456792 -0.200276   
     length 3.45032  
     axis 0 0 0   XYZ 
    dof ry rz
    limits (-10.0 20.0)
           (-20.0 0.0)
  end
  begin
     id 25 
     name rhumerus
     direction -1 -4.4897e-011 8.65094e-028  
     length 5.32214   
     axis 180 30 90   XYZ
    dof rx ry rz
    limits (-90.0 60.0)
           (-90.0 90.0)
           (-90.0 90.0)
  end
  begin
     id 26 
     name rradius
     direction -1 -4.48987e-011 1.08427e-026   
     length 3.51208   
     axis 180 30 90   XYZ
    dof rx
    limits (-10.0 170.0)
  end
  begin
     id 27 
     name rwrist
     direction -1 -4.48961e-011 1.73222e-026   
     length 1.75604   
     axis -9.60847e-015 -90 -90   XYZ
    dof ry
    limits (-180.0 0.0)
  end
  begin
     id 28
     name rhand
     direction -1 -4.48895e-011 3.46314e-026   
     length 0.586681   
     axis -2.21073e-014 -90 -90   XYZ
    dof rx rz
    limits (-90.0 90.0)
           (-45.0 45.0)
  end
  begin
     id 29
     name rfingers
     direction -1 -4.48968e-011 6.92916e-026   
     length 0.472997   
     axis -4.42155e-014 -90 -90   XYZ
    dof rx
    limits (0.0 90.0)
  end
  begin
     id 30
     name rthumb
     direction -0.707107 -6.34848e-011 0.707107   
     length 0.679133   
     axis -90 -45 -6.0103e-014   XYZ
    dof rx rz
    limits (-45.0 45.0)
           (-45.0 45.0)
  end
:hierarchy
  begin
    root lhipjoint rhipjoint lowerback
    lhipjoint lfemur
    lfemur ltibia
    ltibia lfoot
    lfoot ltoes
    rhipjoint rfemur
    rfemur rtibia
    rtibia rfoot
    rfoot rtoes
    lowerback upperback
    upperback thorax
    thorax lowerneck lclavicle rclavicle
    lowerneck upperneck
    upperneck head
    lclavicle lhumerus
    lhumerus lradius
    lradius lwrist
    lwrist lhand lthumb
    lhand lfingers
    rclavicle rhumerus
    rhumerus rradius
    rradius rwrist
    rwrist rhand rthumb
    rhand rfingers
  end

#!OML:ASF H:\Dans Jumps\Project 1\Capture day 1\Session 1\subject.ASF
:FULLY-SPECIFIED
:DEGREES
58
root 0.508537 17.5662 -13.8146 5.20368 -1.55226 -1.75091
lowerback -2.6217 -0.364998 0.336719
upperback 2.33882 -0.562302 1.67727
thorax 3.89219 -0.29582 1.50621
lowerneck -13.9262 0.237067 -2.26466
upperneck 30.0172 0.680424 0.865595
head 12.1787 0.152439 0.815565
rclavicle 9.93923e-016 1.98785e-016
rhumerus -27.6361 -17.596 -77.9137
rradius 23.932
rwrist 31.7094
rhand -19.4916 -26.4715
rfingers 7.12502
rthumb 6.83065 -56.3413
lclavicle 9.93923e-016 1.98785e-016
lhumerus -25.1082 3.57097 86.3282
lradius 16.5143
lwrist 1.87878
lhand -25.4019 -3.83592
lfingers 7.12502
lthumb 1.12343 26.1409
rfemur -11.0543 -2.61507 20.0578
rtibia 19.7254
rfoot -13.2232 -1.62716
rtoes 10.9039
lfemur -9.75577 6.11697 -17.605
ltibia 17.8783
lfoot -10.931 4.48365
ltoes -0.188701
59
root 0.508342 17.566 -13.8141 5.20269 -1.545 -1.7661
lowerback -2.61786 -0.364767 0.347321
upperback 2.3388 -0.562619 1.68319
thorax 3.88998 -0.295769 1.50636
lowerneck -13.9275 0.237304 -2.25687
upperneck 30.0065 0.681039 0.858018
head 12.1748 0.152738 0.811369
rclavicle 3.03147e-015 4.37326e-015
rhumerus -27.6341 -17.5957 -77.9105
rradius 23.9229
rwrist 31.719
rhand -19.5066 -26.4551
rfingers 7.12502
rthumb 6.81614 -56.3253
lclavicle 3.03147e-015 4.37326e-015
lhumerus -25.1213 3.5637 86.3463
lradius 16.5118
lwrist 1.86776
lhand -25.391 -3.84144
lfingers 7.12502
lthumb 1.13394 26.1353
rfemur -11.0481 -2.61502 20.0759
rtibia 19.7197
rfoot -13.2201 -1.63673
rtoes 10.8777
lfemur -9.76439 6.12024 -17.5869
ltibia 17.8985
lfoot -10.9427 4.48021
ltoes -0.20262
60
root 0.508172 17.5658 -13.8138 5.20187 -1.53703 -1.78058
lowerback -2.6123 -0.365317 0.357426
upperback 2.33831 -0.563894 1.68835
thorax 3.88631 -0.296193 1.50597
lowerneck -13.9344 0.237483 -2.24785
upperneck 30.0016 0.681102 0.851332
head 12.1743 0.152984 0.807291
rclavicle 9.93923e-017 -7.7526e-015
rhumerus -27.6323 -17.5934 -77.9093
rradius 23.9137
rwrist 31.7309
rhand -19.5213 -26.4459
rfingers 7.12502
rthumb 6.80196 -56.3166
lclavicle 9.93923e-017 -7.7526e-015
lhumerus -25.1367 3.55286 86.3649
lradius 16.5147
lwrist 1.8637
lhand -25.3875 -3.84061
lfingers 7.12502
lthumb 1.13735 26.1361
rfemur -11.0418 -2.61396 20.0931
rtibia 19.7134
rfoot -13.2162 -1.64678
rtoes 10.8576
lfemur -9.77453 6.12426 -17.5701
ltibia 17.9205
lfoot -10.9541 4.47599
ltoes -0.224854
61
root 0.507974 17.5656 -13.8134 5.20126 -1.52747 -1.79823
lowerback -2.60456 -0.365539 0.370724
upperback 2.33678 -0.564827 1.69369
thorax 3.88029 -0.296354 1.50399
lowerneck -13.9379 0.235605 -2.24084
upperneck 29.9966 0.677516 0.848271
head 12.1732 0.151844 0.804389
rclavicle -1.0138e-014 1.78906e-014
rhumerus -27.6334 -17.5899 -77.9088
rradius 23.9055
rwrist 31.7417
rhand -19.5351 -26.4409
rfingers 7.12502
rthumb 6.7886 -56.3121
lclavicle -1.0138e-014 1.78906e-014
lhumerus -25.1535 3.53041 86.3857
lradius 16.5201
lwrist 1.87126
lhand -25.3808 -3.84245
lfingers 7.12502
lthumb 1.14378 26.1342
rfemur -11.0365 -2.61178 20.1138
rtibia 19.7092
rfoot -13.2134 -1.65896
rtoes 10.842
lfemur -9.78445 6.1264 -17.5496
ltibia 17.9406
lfoot -10.9635 4.47103
ltoes -0.246819
